# xmcd
#
# Track frame offsets:
#  150
#  12853
#  26301
#  43742
#  57427
#  74345
#  92157
#  109204
#  127389
#  137552
#  150903
#  161647
#  177911
#  193588
#
# Disc length: 2845 seconds
#
# Revision: 0
# Processed by: cddbd v1.5.2PL0 Copyright (c) Steve Scherf et al.
# Submitted via: AltoMP3_Maker 3.0
#
DISCID=bd0b1b0e
DTITLE=Washboard Rodeo - Washboard Rodeo
DYEAR=1900
DGENRE=
TTITLE0=Texas in My Soul
TTITLE1=Fort Worth Stomp
TTITLE2=I'm an Old Cowhand
TTITLE3=Sadie Green
TTITLE4=FDR Jones
TTITLE5=Faded Love
TTITLE6=Lose Your Blues and Laugh at Life
TTITLE7=Jack O' Diamonds
TTITLE8=That's What I Like about the South
TTITLE9=Women, Women, Women
TTITLE10=Sugarfoot Rag
TTITLE11=One Is Never Too Old to Swing
TTITLE12=Is It True What They Say about Dixie
TTITLE13=Oh, You Pretty Woman
EXTD=
EXTT0=
EXTT1=
EXTT2=
EXTT3=
EXTT4=
EXTT5=
EXTT6=
EXTT7=
EXTT8=
EXTT9=
EXTT10=
EXTT11=
EXTT12=
EXTT13=
PLAYORDER=
